<svg width="151" height="149" viewBox="0 0 151 149" fill="none" xmlns="http://www.w3.org/2000/svg">
<path d="M135.128 0.544893C135.932 -0.212898 137.197 -0.175735 137.955 0.627898L150.304 13.7239C151.062 14.5275 151.025 15.7933 150.221 16.5511C149.417 17.3089 148.152 17.2717 147.394 16.4681L136.417 4.82721L124.776 15.804C123.973 16.5618 122.707 16.5247 121.949 15.721C121.191 14.9174 121.228 13.6516 122.032 12.8938L135.128 0.544893ZM93.8857 92.2179L95.1826 93.7405L93.8857 92.2179ZM1.01106 137.995C0.102981 137.366 -0.123364 136.12 0.505496 135.212L10.7534 120.414C11.3823 119.506 12.6282 119.279 13.5363 119.908C14.4444 120.537 14.6707 121.783 14.0419 122.691L4.93259 135.845L18.0863 144.954C18.9944 145.583 19.2208 146.829 18.5919 147.737C17.963 148.645 16.7171 148.871 15.809 148.242L1.01106 137.995ZM136.5 2C138.499 2.05869 138.499 2.05961 138.499 2.06074C138.499 2.06139 138.499 2.06273 138.499 2.06405C138.499 2.06667 138.499 2.07014 138.499 2.07445C138.498 2.08307 138.498 2.09503 138.497 2.11031C138.496 2.14086 138.495 2.18467 138.492 2.24144C138.488 2.35499 138.48 2.5204 138.469 2.73537C138.446 3.1653 138.408 3.79354 138.344 4.60156C138.217 6.21744 137.989 8.55337 137.587 11.4609C136.783 17.2739 135.279 25.3835 132.478 34.5981C126.881 53.0102 116.066 75.9531 95.1826 93.7405L92.5889 90.6954C112.696 73.5692 123.188 51.4032 128.651 33.4347C131.379 24.459 132.843 16.5604 133.625 10.9128C134.015 8.08999 134.235 5.8325 134.356 4.28754C134.417 3.51514 134.454 2.92111 134.475 2.52386C134.485 2.32525 134.492 2.17586 134.496 2.07799C134.498 2.02906 134.499 1.99301 134.5 1.97013C134.5 1.95869 134.501 1.95055 134.501 1.94573C134.501 1.94332 134.501 1.94175 134.501 1.94101C134.501 1.94064 134.501 1.94071 134.501 1.94053C134.501 1.94081 134.501 1.94131 136.5 2ZM95.1826 93.7405C74.4541 111.396 51.2925 122.53 33.3476 129.25C24.3684 132.612 16.6777 134.875 11.2246 136.299C8.49753 137.012 6.32873 137.514 4.83665 137.84C4.09057 138.003 3.51356 138.121 3.12041 138.2C2.92384 138.239 2.77322 138.268 2.6704 138.288C2.61899 138.297 2.57953 138.305 2.55226 138.31C2.53861 138.312 2.52803 138.314 2.5205 138.316C2.51675 138.316 2.51375 138.317 2.51154 138.317C2.51043 138.317 2.50934 138.318 2.50879 138.318C2.5079 138.318 2.5072 138.318 2.14971 136.35C1.79223 134.382 1.79192 134.383 1.7918 134.383C1.79202 134.383 1.7921 134.383 1.79253 134.382C1.7934 134.382 1.79504 134.382 1.79744 134.382C1.80226 134.381 1.81014 134.379 1.82104 134.377C1.84286 134.373 1.87681 134.367 1.92267 134.358C2.01439 134.341 2.15372 134.314 2.33883 134.277C2.70904 134.203 3.26229 134.089 3.98383 133.932C5.42701 133.617 7.54295 133.127 10.2138 132.429C15.5563 131.034 23.1139 128.81 31.9449 125.504C49.6203 118.885 72.3268 107.953 92.5889 90.6954L95.1826 93.7405Z" fill="#339999"/>
</svg>
