<svg width="151" height="149" viewBox="0 0 151 149" fill="none" xmlns="http://www.w3.org/2000/svg">
<path d="M15.8701 0.544893C15.0665 -0.212898 13.8007 -0.175735 13.0429 0.627898L0.694021 13.7239C-0.0637712 14.5275 -0.0266087 15.7933 0.777025 16.5511C1.58066 17.3089 2.84644 17.2717 3.60423 16.4681L14.5811 4.82721L26.2219 15.804C27.0255 16.5618 28.2913 16.5247 29.0491 15.721C29.8069 14.9174 29.7697 13.6516 28.9661 12.8938L15.8701 0.544893ZM57.1123 92.2179L55.8155 93.7405L57.1123 92.2179ZM149.987 137.995C150.895 137.366 151.121 136.12 150.493 135.212L140.245 120.414C139.616 119.506 138.37 119.279 137.462 119.908C136.554 120.537 136.327 121.783 136.956 122.691L146.065 135.845L132.912 144.954C132.004 145.583 131.777 146.829 132.406 147.737C133.035 148.645 134.281 148.871 135.189 148.242L149.987 137.995ZM14.498 2C12.4989 2.05869 12.4989 2.05961 12.499 2.06074C12.499 2.06139 12.499 2.06273 12.4991 2.06405C12.4992 2.06667 12.4993 2.07014 12.4994 2.07445C12.4997 2.08307 12.5001 2.09503 12.5006 2.11031C12.5017 2.14086 12.5033 2.18467 12.5056 2.24144C12.5103 2.35499 12.5177 2.5204 12.5291 2.73537C12.5519 3.1653 12.5904 3.79354 12.654 4.60156C12.7813 6.21744 13.0089 8.55337 13.4111 11.4609C14.2152 17.2739 15.719 25.3835 18.5202 34.5981C24.1173 53.0102 34.932 75.9531 55.8155 93.7405L58.4092 90.6954C38.302 73.5692 27.8096 51.4032 22.3473 33.4347C19.6187 24.459 18.1546 16.5604 17.3734 10.9128C16.9829 8.08999 16.7634 5.8325 16.6417 4.28754C16.5809 3.51514 16.5445 2.92111 16.5235 2.52386C16.513 2.32525 16.5063 2.17586 16.5023 2.07799C16.5003 2.02906 16.499 1.99301 16.4982 1.97013C16.4978 1.95869 16.4975 1.95055 16.4973 1.94573C16.4972 1.94332 16.4972 1.94175 16.4972 1.94101C16.4972 1.94064 16.4972 1.94071 16.4972 1.94053C16.4972 1.94081 16.4972 1.94131 14.498 2ZM55.8155 93.7405C76.544 111.396 99.7055 122.53 117.65 129.25C126.63 132.612 134.32 134.875 139.773 136.299C142.501 137.012 144.669 137.514 146.161 137.84C146.907 138.003 147.484 138.121 147.878 138.2C148.074 138.239 148.225 138.268 148.328 138.288C148.379 138.297 148.419 138.305 148.446 138.31C148.459 138.312 148.47 138.314 148.478 138.316C148.481 138.316 148.484 138.317 148.487 138.317C148.488 138.317 148.489 138.318 148.489 138.318C148.49 138.318 148.491 138.318 148.848 136.35C149.206 134.382 149.206 134.383 149.206 134.383C149.206 134.383 149.206 134.383 149.206 134.382C149.205 134.382 149.203 134.382 149.201 134.382C149.196 134.381 149.188 134.379 149.177 134.377C149.155 134.373 149.121 134.367 149.075 134.358C148.984 134.341 148.844 134.314 148.659 134.277C148.289 134.203 147.736 134.089 147.014 133.932C145.571 133.617 143.455 133.127 140.784 132.429C135.442 131.034 127.884 128.81 119.053 125.504C101.378 118.885 78.6713 107.953 58.4092 90.6954L55.8155 93.7405Z" fill="#339999"/>
</svg>
