<svg width="41" height="40" viewBox="0 0 41 40" fill="none" xmlns="http://www.w3.org/2000/svg">
<path d="M32.1673 21.6667C31.7253 21.6667 31.3014 21.8423 30.9888 22.1548C30.6763 22.4674 30.5007 22.8913 30.5007 23.3333V23.9667L28.034 21.5C27.163 20.6359 25.9859 20.151 24.759 20.151C23.5321 20.151 22.3549 20.6359 21.484 21.5L20.3173 22.6667L16.184 18.5333C15.3009 17.6927 14.1283 17.2238 12.909 17.2238C11.6897 17.2238 10.5171 17.6927 9.63399 18.5333L7.16732 21V11.6667C7.16732 11.2246 7.34291 10.8007 7.65547 10.4882C7.96803 10.1756 8.39196 10 8.83399 10H20.5007C20.9427 10 21.3666 9.82441 21.6792 9.51185C21.9917 9.19929 22.1673 8.77537 22.1673 8.33334C22.1673 7.89131 21.9917 7.46739 21.6792 7.15483C21.3666 6.84227 20.9427 6.66668 20.5007 6.66668H8.83399C7.5079 6.66668 6.23613 7.19346 5.29845 8.13114C4.36077 9.06882 3.83398 10.3406 3.83398 11.6667V31.6667C3.83398 32.9928 4.36077 34.2645 5.29845 35.2022C6.23613 36.1399 7.5079 36.6667 8.83399 36.6667H28.834C30.1601 36.6667 31.4318 36.1399 32.3695 35.2022C33.3072 34.2645 33.834 32.9928 33.834 31.6667V23.3333C33.834 22.8913 33.6584 22.4674 33.3458 22.1548C33.0333 21.8423 32.6094 21.6667 32.1673 21.6667ZM8.83399 33.3333C8.39196 33.3333 7.96803 33.1577 7.65547 32.8452C7.34291 32.5326 7.16732 32.1087 7.16732 31.6667V25.7167L12.0007 20.8833C12.2455 20.65 12.5708 20.5198 12.909 20.5198C13.2472 20.5198 13.5725 20.65 13.8173 20.8833L19.1007 26.1667L26.2673 33.3333H8.83399ZM30.5007 31.6667C30.4971 31.9855 30.392 32.2949 30.2007 32.55L22.684 25L23.8507 23.8333C23.9701 23.7114 24.1128 23.6145 24.2702 23.5484C24.4276 23.4822 24.5966 23.4482 24.7673 23.4482C24.9381 23.4482 25.1071 23.4822 25.2645 23.5484C25.4219 23.6145 25.5645 23.7114 25.684 23.8333L30.5007 28.6833V31.6667ZM38.3507 7.15001L33.3507 2.15001C33.1921 1.99828 33.0052 1.87933 32.8007 1.80001C32.3949 1.63331 31.9398 1.63331 31.534 1.80001C31.3294 1.87933 31.1425 1.99828 30.984 2.15001L25.984 7.15001C25.6701 7.46385 25.4938 7.88951 25.4938 8.33334C25.4938 8.77718 25.6701 9.20284 25.984 9.51668C26.2978 9.83051 26.7235 10.0068 27.1673 10.0068C27.6112 10.0068 28.0368 9.83051 28.3507 9.51668L30.5007 7.35001V16.6667C30.5007 17.1087 30.6763 17.5326 30.9888 17.8452C31.3014 18.1577 31.7253 18.3333 32.1673 18.3333C32.6094 18.3333 33.0333 18.1577 33.3458 17.8452C33.6584 17.5326 33.834 17.1087 33.834 16.6667V7.35001L35.984 9.51668C36.1389 9.67289 36.3233 9.79688 36.5264 9.88149C36.7295 9.96611 36.9473 10.0097 37.1673 10.0097C37.3873 10.0097 37.6052 9.96611 37.8083 9.88149C38.0114 9.79688 38.1957 9.67289 38.3507 9.51668C38.5069 9.36174 38.6309 9.1774 38.7155 8.9743C38.8001 8.7712 38.8437 8.55336 38.8437 8.33334C38.8437 8.11332 38.8001 7.89548 38.7155 7.69238C38.6309 7.48928 38.5069 7.30495 38.3507 7.15001Z" fill="#B3831C"/>
</svg>
