<svg width="34" height="31" viewBox="0 0 34 31" fill="none" xmlns="http://www.w3.org/2000/svg">
<path fill-rule="evenodd" clip-rule="evenodd" d="M8.66732 30.6667C6.45718 30.6667 4.33756 29.7887 2.77476 28.2259C1.21196 26.6631 0.333984 24.5435 0.333984 22.3334V17.3334C0.333984 16.8913 0.509579 16.4674 0.82214 16.1548C1.1347 15.8423 1.55862 15.6667 2.00065 15.6667C2.44268 15.6667 2.8666 15.8423 3.17916 16.1548C3.49172 16.4674 3.66732 16.8913 3.66732 17.3334V22.3334C3.66732 23.6594 4.1941 24.9312 5.13178 25.8689C6.06947 26.8066 7.34124 27.3334 8.66732 27.3334H25.334C26.6601 27.3334 27.9318 26.8066 28.8695 25.8689C29.8072 24.9312 30.334 23.6594 30.334 22.3334V17.3334C30.334 16.8913 30.5096 16.4674 30.8221 16.1548C31.1347 15.8423 31.5586 15.6667 32.0007 15.6667C32.4427 15.6667 32.8666 15.8423 33.1792 16.1548C33.4917 16.4674 33.6673 16.8913 33.6673 17.3334V22.3334C33.6673 24.5435 32.7893 26.6631 31.2265 28.2259C29.6637 29.7887 27.5441 30.6667 25.334 30.6667H8.66732Z" fill="#333333"/>
<path fill-rule="evenodd" clip-rule="evenodd" d="M9.14164 10.8333C8.98842 10.6768 8.86756 10.4916 8.78596 10.2883C8.70437 10.085 8.66365 9.86767 8.66612 9.64864C8.6686 9.42961 8.71423 9.21322 8.8004 9.01184C8.88657 8.81045 9.01159 8.62803 9.16831 8.475L16.6683 1.14167C16.9797 0.83729 17.3979 0.66687 17.8333 0.66687C18.2688 0.66687 18.6869 0.83729 18.9983 1.14167L26.4983 8.475C26.6582 8.6272 26.7862 8.80964 26.875 9.01172C26.9637 9.2138 27.0115 9.4315 27.0154 9.65219C27.0194 9.87287 26.9795 10.0921 26.898 10.2973C26.8165 10.5024 26.6951 10.6893 26.5408 10.8471C26.3865 11.005 26.2024 11.1306 25.9992 11.2167C25.7959 11.3028 25.5776 11.3476 25.3569 11.3487C25.1362 11.3497 24.9175 11.3069 24.7134 11.2227C24.5094 11.1386 24.3241 11.0147 24.1683 10.8583L19.5 6.29333V20.6667C19.5 21.1087 19.3244 21.5326 19.0118 21.8452C18.6993 22.1577 18.2753 22.3333 17.8333 22.3333C17.3913 22.3333 16.9674 22.1577 16.6548 21.8452C16.3422 21.5326 16.1666 21.1087 16.1666 20.6667V6.29333L11.5 10.8583C11.3434 11.0116 11.1582 11.1324 10.955 11.214C10.7517 11.2956 10.5343 11.3363 10.3153 11.3339C10.0963 11.3314 9.87986 11.2858 9.67848 11.1996C9.4771 11.1134 9.29467 10.9884 9.14164 10.8317V10.8333Z" fill="#333333"/>
</svg>
